# xmcd
#
# Track frame offsets: 
#        150
#        1655
#        7550
#        17680
#        18885
#        19975
#        22495
#        34200
#        35910
#        38650
#        39845
#        42645
#        52525
#        54170
#        60105
#        69480
#        80150
#        81780
#        92145
#        101700
#        111520
#        112600
#        113830
#        115750
#        131070
#        133895
#        137165
#        144865
#        146905
#        161480
#        166920
#        174965
#        178490
#        183375
#        186155
#        200905
#        202700
#
# Disc length: 2887 seconds
#
# Revision: 0
# Processed by: cddbd v1.5.2PL0 Copyright (c) Steve Scherf et al.
# Submitted via: ExactAudioCopy v0.95b3
#
DISCID=f10b4525
DTITLE=The Byrds  - The Byrds Journals vol. 4  FLAC
DYEAR=1900
DGENRE=
TTITLE0=It Won't Be Wrong (Take 1)
TTITLE1=It Won't Be Wrong (Take 2)
TTITLE2=It Won't Be Wrong (Take 3)
TTITLE3=It Won't Be Wrong (Take 4)
TTITLE4=It Won't Be Wrong (Take 5)
TTITLE5=It Won't Be Wrong (Take 6)
TTITLE6=It Won't Be Wrong (Take 7)
TTITLE7=It Won't Be Wrong (Take 8)
TTITLE8=It Won't Be Wrong (Take 9)
TTITLE9=It Won't Be Wrong (Take 10)
TTITLE10=It Won't Be Wrong (Take 11)
TTITLE11=It Won't Be Wrong (Take 12)
TTITLE12=It Won't Be Wrong (Take 13)
TTITLE13=It Won't Be Wrong (Take 14)
TTITLE14=It Won't Be Wrong (Take 15)
TTITLE15=It Won't Be Wrong (Take 16)
TTITLE16=It Won't Be Wrong (Take 17)
TTITLE17=It Won't Be Wrong (Take 18)
TTITLE18=It Won't Be Wrong (Take 19)
TTITLE19=It Won't Be Wrong (Take 20)
TTITLE20=Satisfied Mind (Take 1)
TTITLE21=Satisfied Mind (Take 2)
TTITLE22=Satisfied Mind (Take 3)
TTITLE23=Satisfied Mind (Take 5)
TTITLE24=Satisfied Mind (Take 6)
TTITLE25=Satisfied Mind (Take 7)
TTITLE26=Satisfied Mind (Take 8)
TTITLE27=Satisfied Mind (Take 9)
TTITLE28=Satisfied Mind (Take 10)
TTITLE29=Satisfied Mind (Take 11)
TTITLE30=Satisfied Mind (Take 12)
TTITLE31=Satisfied Mind (Take 13)
TTITLE32=Satisfied Mind (Take 14)
TTITLE33=Satisfied Mind (Take 15)
TTITLE34=Satisfied Mind (Take 16)
TTITLE35=Satisfied Mind (Take 17)
TTITLE36=Satisfied Mind (Take 18)
EXTD=
EXTT0=
EXTT1=
EXTT2=
EXTT3=
EXTT4=
EXTT5=
EXTT6=
EXTT7=
EXTT8=
EXTT9=
EXTT10=
EXTT11=
EXTT12=
EXTT13=
EXTT14=
EXTT15=
EXTT16=
EXTT17=
EXTT18=
EXTT19=
EXTT20=
EXTT21=
EXTT22=
EXTT23=
EXTT24=
EXTT25=
EXTT26=
EXTT27=
EXTT28=
EXTT29=
EXTT30=
EXTT31=
EXTT32=
EXTT33=
EXTT34=
EXTT35=
EXTT36=
PLAYORDER=
